<svg class="rich-terminal" viewBox="0 0 1482 928.4" xmlns="http://www.w3.org/2000/svg">
    <!-- Generated with Rich https://www.textualize.io -->
    <style>

    @font-face {
        font-family: "Fira Code";
        src: local("FiraCode-Regular"),
                url("https://cdnjs.cloudflare.com/ajax/libs/firacode/6.2.0/woff2/FiraCode-Regular.woff2") format("woff2"),
                url("https://cdnjs.cloudflare.com/ajax/libs/firacode/6.2.0/woff/FiraCode-Regular.woff") format("woff");
        font-style: normal;
        font-weight: 400;
    }
    @font-face {
        font-family: "Fira Code";
        src: local("FiraCode-Bold"),
                url("https://cdnjs.cloudflare.com/ajax/libs/firacode/6.2.0/woff2/FiraCode-Bold.woff2") format("woff2"),
                url("https://cdnjs.cloudflare.com/ajax/libs/firacode/6.2.0/woff/FiraCode-Bold.woff") format("woff");
        font-style: bold;
        font-weight: 700;
    }

    .terminal-21506703-matrix {
        font-family: Fira Code, monospace;
        font-size: 20px;
        line-height: 24.4px;
        font-variant-east-asian: full-width;
    }

    .terminal-21506703-title {
        font-size: 18px;
        font-weight: bold;
        font-family: arial;
    }

    .terminal-21506703-r1 { fill: #c5c8c6 }
.terminal-21506703-r2 { fill: #4b4b4b }
.terminal-21506703-r3 { fill: #181818 }
.terminal-21506703-r4 { fill: #656565 }
.terminal-21506703-r5 { fill: #121212 }
.terminal-21506703-r6 { fill: #797979 }
.terminal-21506703-r7 { fill: #e0e0e0 }
.terminal-21506703-r8 { fill: #efefef }
    </style>

    <defs>
    <clipPath id="terminal-21506703-clip-terminal">
      <rect x="0" y="0" width="1463.0" height="877.4" />
    </clipPath>
    <clipPath id="terminal-21506703-line-0">
    <rect x="0" y="1.5" width="1464" height="24.65"/>
            </clipPath>
<clipPath id="terminal-21506703-line-1">
    <rect x="0" y="25.9" width="1464" height="24.65"/>
            </clipPath>
<clipPath id="terminal-21506703-line-2">
    <rect x="0" y="50.3" width="1464" height="24.65"/>
            </clipPath>
<clipPath id="terminal-21506703-line-3">
    <rect x="0" y="74.7" width="1464" height="24.65"/>
            </clipPath>
<clipPath id="terminal-21506703-line-4">
    <rect x="0" y="99.1" width="1464" height="24.65"/>
            </clipPath>
<clipPath id="terminal-21506703-line-5">
    <rect x="0" y="123.5" width="1464" height="24.65"/>
            </clipPath>
<clipPath id="terminal-21506703-line-6">
    <rect x="0" y="147.9" width="1464" height="24.65"/>
            </clipPath>
<clipPath id="terminal-21506703-line-7">
    <rect x="0" y="172.3" width="1464" height="24.65"/>
            </clipPath>
<clipPath id="terminal-21506703-line-8">
    <rect x="0" y="196.7" width="1464" height="24.65"/>
            </clipPath>
<clipPath id="terminal-21506703-line-9">
    <rect x="0" y="221.1" width="1464" height="24.65"/>
            </clipPath>
<clipPath id="terminal-21506703-line-10">
    <rect x="0" y="245.5" width="1464" height="24.65"/>
            </clipPath>
<clipPath id="terminal-21506703-line-11">
    <rect x="0" y="269.9" width="1464" height="24.65"/>
            </clipPath>
<clipPath id="terminal-21506703-line-12">
    <rect x="0" y="294.3" width="1464" height="24.65"/>
            </clipPath>
<clipPath id="terminal-21506703-line-13">
    <rect x="0" y="318.7" width="1464" height="24.65"/>
            </clipPath>
<clipPath id="terminal-21506703-line-14">
    <rect x="0" y="343.1" width="1464" height="24.65"/>
            </clipPath>
<clipPath id="terminal-21506703-line-15">
    <rect x="0" y="367.5" width="1464" height="24.65"/>
            </clipPath>
<clipPath id="terminal-21506703-line-16">
    <rect x="0" y="391.9" width="1464" height="24.65"/>
            </clipPath>
<clipPath id="terminal-21506703-line-17">
    <rect x="0" y="416.3" width="1464" height="24.65"/>
            </clipPath>
<clipPath id="terminal-21506703-line-18">
    <rect x="0" y="440.7" width="1464" height="24.65"/>
            </clipPath>
<clipPath id="terminal-21506703-line-19">
    <rect x="0" y="465.1" width="1464" height="24.65"/>
            </clipPath>
<clipPath id="terminal-21506703-line-20">
    <rect x="0" y="489.5" width="1464" height="24.65"/>
            </clipPath>
<clipPath id="terminal-21506703-line-21">
    <rect x="0" y="513.9" width="1464" height="24.65"/>
            </clipPath>
<clipPath id="terminal-21506703-line-22">
    <rect x="0" y="538.3" width="1464" height="24.65"/>
            </clipPath>
<clipPath id="terminal-21506703-line-23">
    <rect x="0" y="562.7" width="1464" height="24.65"/>
            </clipPath>
<clipPath id="terminal-21506703-line-24">
    <rect x="0" y="587.1" width="1464" height="24.65"/>
            </clipPath>
<clipPath id="terminal-21506703-line-25">
    <rect x="0" y="611.5" width="1464" height="24.65"/>
            </clipPath>
<clipPath id="terminal-21506703-line-26">
    <rect x="0" y="635.9" width="1464" height="24.65"/>
            </clipPath>
<clipPath id="terminal-21506703-line-27">
    <rect x="0" y="660.3" width="1464" height="24.65"/>
            </clipPath>
<clipPath id="terminal-21506703-line-28">
    <rect x="0" y="684.7" width="1464" height="24.65"/>
            </clipPath>
<clipPath id="terminal-21506703-line-29">
    <rect x="0" y="709.1" width="1464" height="24.65"/>
            </clipPath>
<clipPath id="terminal-21506703-line-30">
    <rect x="0" y="733.5" width="1464" height="24.65"/>
            </clipPath>
<clipPath id="terminal-21506703-line-31">
    <rect x="0" y="757.9" width="1464" height="24.65"/>
            </clipPath>
<clipPath id="terminal-21506703-line-32">
    <rect x="0" y="782.3" width="1464" height="24.65"/>
            </clipPath>
<clipPath id="terminal-21506703-line-33">
    <rect x="0" y="806.7" width="1464" height="24.65"/>
            </clipPath>
<clipPath id="terminal-21506703-line-34">
    <rect x="0" y="831.1" width="1464" height="24.65"/>
            </clipPath>
    </defs>

    <rect fill="#292929" stroke="rgba(255,255,255,0.35)" stroke-width="1" x="1" y="1" width="1480" height="926.4" rx="8"/><text class="terminal-21506703-title" fill="#c5c8c6" text-anchor="middle" x="740" y="27">VelaApp</text>
            <g transform="translate(26,22)">
            <circle cx="0" cy="0" r="7" fill="#ff5f57"/>
            <circle cx="22" cy="0" r="7" fill="#febc2e"/>
            <circle cx="44" cy="0" r="7" fill="#28c840"/>
            </g>

    <g transform="translate(9, 41)" clip-path="url(#terminal-21506703-clip-terminal)">
    <rect fill="#131313" x="0" y="1.5" width="1464" height="24.65" shape-rendering="crispEdges"/><rect fill="#131313" x="0" y="25.9" width="1464" height="24.65" shape-rendering="crispEdges"/><rect fill="#131313" x="0" y="50.3" width="292.8" height="24.65" shape-rendering="crispEdges"/><rect fill="#181818" x="292.8" y="50.3" width="12.2" height="24.65" shape-rendering="crispEdges"/><rect fill="#181818" x="305" y="50.3" width="854" height="24.65" shape-rendering="crispEdges"/><rect fill="#181818" x="1159" y="50.3" width="12.2" height="24.65" shape-rendering="crispEdges"/><rect fill="#131313" x="1171.2" y="50.3" width="292.8" height="24.65" shape-rendering="crispEdges"/><rect fill="#131313" x="0" y="74.7" width="292.8" height="24.65" shape-rendering="crispEdges"/><rect fill="#181818" x="292.8" y="74.7" width="12.2" height="24.65" shape-rendering="crispEdges"/><rect fill="#181818" x="305" y="74.7" width="854" height="24.65" shape-rendering="crispEdges"/><rect fill="#181818" x="1159" y="74.7" width="12.2" height="24.65" shape-rendering="crispEdges"/><rect fill="#131313" x="1171.2" y="74.7" width="292.8" height="24.65" shape-rendering="crispEdges"/><rect fill="#131313" x="0" y="99.1" width="292.8" height="24.65" shape-rendering="crispEdges"/><rect fill="#181818" x="292.8" y="99.1" width="12.2" height="24.65" shape-rendering="crispEdges"/><rect fill="#181818" x="305" y="99.1" width="24.4" height="24.65" shape-rendering="crispEdges"/><rect fill="#656565" x="329.4" y="99.1" width="12.2" height="24.65" shape-rendering="crispEdges"/><rect fill="#272727" x="341.6" y="99.1" width="780.8" height="24.65" shape-rendering="crispEdges"/><rect fill="#181818" x="1122.4" y="99.1" width="12.2" height="24.65" shape-rendering="crispEdges"/><rect fill="#181818" x="1134.6" y="99.1" width="24.4" height="24.65" shape-rendering="crispEdges"/><rect fill="#181818" x="1159" y="99.1" width="12.2" height="24.65" shape-rendering="crispEdges"/><rect fill="#131313" x="1171.2" y="99.1" width="292.8" height="24.65" shape-rendering="crispEdges"/><rect fill="#131313" x="0" y="123.5" width="292.8" height="24.65" shape-rendering="crispEdges"/><rect fill="#181818" x="292.8" y="123.5" width="12.2" height="24.65" shape-rendering="crispEdges"/><rect fill="#181818" x="305" y="123.5" width="24.4" height="24.65" shape-rendering="crispEdges"/><rect fill="#656565" x="329.4" y="123.5" width="12.2" height="24.65" shape-rendering="crispEdges"/><rect fill="#272727" x="341.6" y="123.5" width="24.4" height="24.65" shape-rendering="crispEdges"/><rect fill="#e0e0e0" x="366" y="123.5" width="12.2" height="24.65" shape-rendering="crispEdges"/><rect fill="#272727" x="378.2" y="123.5" width="158.6" height="24.65" shape-rendering="crispEdges"/><rect fill="#272727" x="536.8" y="123.5" width="561.2" height="24.65" shape-rendering="crispEdges"/><rect fill="#272727" x="1098" y="123.5" width="24.4" height="24.65" shape-rendering="crispEdges"/><rect fill="#181818" x="1122.4" y="123.5" width="12.2" height="24.65" shape-rendering="crispEdges"/><rect fill="#181818" x="1134.6" y="123.5" width="24.4" height="24.65" shape-rendering="crispEdges"/><rect fill="#181818" x="1159" y="123.5" width="12.2" height="24.65" shape-rendering="crispEdges"/><rect fill="#131313" x="1171.2" y="123.5" width="292.8" height="24.65" shape-rendering="crispEdges"/><rect fill="#131313" x="0" y="147.9" width="292.8" height="24.65" shape-rendering="crispEdges"/><rect fill="#181818" x="292.8" y="147.9" width="12.2" height="24.65" shape-rendering="crispEdges"/><rect fill="#181818" x="305" y="147.9" width="24.4" height="24.65" shape-rendering="crispEdges"/><rect fill="#656565" x="329.4" y="147.9" width="12.2" height="24.65" shape-rendering="crispEdges"/><rect fill="#272727" x="341.6" y="147.9" width="780.8" height="24.65" shape-rendering="crispEdges"/><rect fill="#181818" x="1122.4" y="147.9" width="12.2" height="24.65" shape-rendering="crispEdges"/><rect fill="#181818" x="1134.6" y="147.9" width="24.4" height="24.65" shape-rendering="crispEdges"/><rect fill="#181818" x="1159" y="147.9" width="12.2" height="24.65" shape-rendering="crispEdges"/><rect fill="#131313" x="1171.2" y="147.9" width="292.8" height="24.65" shape-rendering="crispEdges"/><rect fill="#131313" x="0" y="172.3" width="292.8" height="24.65" shape-rendering="crispEdges"/><rect fill="#181818" x="292.8" y="172.3" width="12.2" height="24.65" shape-rendering="crispEdges"/><rect fill="#181818" x="305" y="172.3" width="24.4" height="24.65" shape-rendering="crispEdges"/><rect fill="#181818" x="329.4" y="172.3" width="805.2" height="24.65" shape-rendering="crispEdges"/><rect fill="#181818" x="1134.6" y="172.3" width="24.4" height="24.65" shape-rendering="crispEdges"/><rect fill="#181818" x="1159" y="172.3" width="12.2" height="24.65" shape-rendering="crispEdges"/><rect fill="#131313" x="1171.2" y="172.3" width="292.8" height="24.65" shape-rendering="crispEdges"/><rect fill="#131313" x="0" y="196.7" width="292.8" height="24.65" shape-rendering="crispEdges"/><rect fill="#181818" x="292.8" y="196.7" width="12.2" height="24.65" shape-rendering="crispEdges"/><rect fill="#181818" x="305" y="196.7" width="24.4" height="24.65" shape-rendering="crispEdges"/><rect fill="#181818" x="329.4" y="196.7" width="158.6" height="24.65" shape-rendering="crispEdges"/><rect fill="#181818" x="488" y="196.7" width="646.6" height="24.65" shape-rendering="crispEdges"/><rect fill="#181818" x="1134.6" y="196.7" width="24.4" height="24.65" shape-rendering="crispEdges"/><rect fill="#181818" x="1159" y="196.7" width="12.2" height="24.65" shape-rendering="crispEdges"/><rect fill="#131313" x="1171.2" y="196.7" width="292.8" height="24.65" shape-rendering="crispEdges"/><rect fill="#131313" x="0" y="221.1" width="292.8" height="24.65" shape-rendering="crispEdges"/><rect fill="#181818" x="292.8" y="221.1" width="12.2" height="24.65" shape-rendering="crispEdges"/><rect fill="#181818" x="305" y="221.1" width="24.4" height="24.65" shape-rendering="crispEdges"/><rect fill="#181818" x="329.4" y="221.1" width="0" height="24.65" shape-rendering="crispEdges"/><rect fill="#181818" x="329.4" y="221.1" width="805.2" height="24.65" shape-rendering="crispEdges"/><rect fill="#181818" x="1134.6" y="221.1" width="24.4" height="24.65" shape-rendering="crispEdges"/><rect fill="#181818" x="1159" y="221.1" width="12.2" height="24.65" shape-rendering="crispEdges"/><rect fill="#131313" x="1171.2" y="221.1" width="292.8" height="24.65" shape-rendering="crispEdges"/><rect fill="#131313" x="0" y="245.5" width="292.8" height="24.65" shape-rendering="crispEdges"/><rect fill="#181818" x="292.8" y="245.5" width="12.2" height="24.65" shape-rendering="crispEdges"/><rect fill="#181818" x="305" y="245.5" width="24.4" height="24.65" shape-rendering="crispEdges"/><rect fill="#181818" x="329.4" y="245.5" width="366" height="24.65" shape-rendering="crispEdges"/><rect fill="#181818" x="695.4" y="245.5" width="439.2" height="24.65" shape-rendering="crispEdges"/><rect fill="#181818" x="1134.6" y="245.5" width="24.4" height="24.65" shape-rendering="crispEdges"/><rect fill="#181818" x="1159" y="245.5" width="12.2" height="24.65" shape-rendering="crispEdges"/><rect fill="#131313" x="1171.2" y="245.5" width="292.8" height="24.65" shape-rendering="crispEdges"/><rect fill="#131313" x="0" y="269.9" width="292.8" height="24.65" shape-rendering="crispEdges"/><rect fill="#181818" x="292.8" y="269.9" width="12.2" height="24.65" shape-rendering="crispEdges"/><rect fill="#181818" x="305" y="269.9" width="24.4" height="24.65" shape-rendering="crispEdges"/><rect fill="#181818" x="329.4" y="269.9" width="219.6" height="24.65" shape-rendering="crispEdges"/><rect fill="#181818" x="549" y="269.9" width="585.6" height="24.65" shape-rendering="crispEdges"/><rect fill="#181818" x="1134.6" y="269.9" width="24.4" height="24.65" shape-rendering="crispEdges"/><rect fill="#181818" x="1159" y="269.9" width="12.2" height="24.65" shape-rendering="crispEdges"/><rect fill="#131313" x="1171.2" y="269.9" width="292.8" height="24.65" shape-rendering="crispEdges"/><rect fill="#131313" x="0" y="294.3" width="292.8" height="24.65" shape-rendering="crispEdges"/><rect fill="#181818" x="292.8" y="294.3" width="12.2" height="24.65" shape-rendering="crispEdges"/><rect fill="#181818" x="305" y="294.3" width="24.4" height="24.65" shape-rendering="crispEdges"/><rect fill="#181818" x="329.4" y="294.3" width="585.6" height="24.65" shape-rendering="crispEdges"/><rect fill="#181818" x="915" y="294.3" width="219.6" height="24.65" shape-rendering="crispEdges"/><rect fill="#181818" x="1134.6" y="294.3" width="24.4" height="24.65" shape-rendering="crispEdges"/><rect fill="#181818" x="1159" y="294.3" width="12.2" height="24.65" shape-rendering="crispEdges"/><rect fill="#131313" x="1171.2" y="294.3" width="292.8" height="24.65" shape-rendering="crispEdges"/><rect fill="#131313" x="0" y="318.7" width="292.8" height="24.65" shape-rendering="crispEdges"/><rect fill="#181818" x="292.8" y="318.7" width="12.2" height="24.65" shape-rendering="crispEdges"/><rect fill="#181818" x="305" y="318.7" width="24.4" height="24.65" shape-rendering="crispEdges"/><rect fill="#181818" x="329.4" y="318.7" width="0" height="24.65" shape-rendering="crispEdges"/><rect fill="#181818" x="329.4" y="318.7" width="805.2" height="24.65" shape-rendering="crispEdges"/><rect fill="#181818" x="1134.6" y="318.7" width="24.4" height="24.65" shape-rendering="crispEdges"/><rect fill="#181818" x="1159" y="318.7" width="12.2" height="24.65" shape-rendering="crispEdges"/><rect fill="#131313" x="1171.2" y="318.7" width="292.8" height="24.65" shape-rendering="crispEdges"/><rect fill="#131313" x="0" y="343.1" width="292.8" height="24.65" shape-rendering="crispEdges"/><rect fill="#181818" x="292.8" y="343.1" width="12.2" height="24.65" shape-rendering="crispEdges"/><rect fill="#181818" x="305" y="343.1" width="24.4" height="24.65" shape-rendering="crispEdges"/><rect fill="#181818" x="329.4" y="343.1" width="195.2" height="24.65" shape-rendering="crispEdges"/><rect fill="#181818" x="524.6" y="343.1" width="610" height="24.65" shape-rendering="crispEdges"/><rect fill="#181818" x="1134.6" y="343.1" width="24.4" height="24.65" shape-rendering="crispEdges"/><rect fill="#181818" x="1159" y="343.1" width="12.2" height="24.65" shape-rendering="crispEdges"/><rect fill="#131313" x="1171.2" y="343.1" width="292.8" height="24.65" shape-rendering="crispEdges"/><rect fill="#131313" x="0" y="367.5" width="292.8" height="24.65" shape-rendering="crispEdges"/><rect fill="#181818" x="292.8" y="367.5" width="12.2" height="24.65" shape-rendering="crispEdges"/><rect fill="#181818" x="305" y="367.5" width="24.4" height="24.65" shape-rendering="crispEdges"/><rect fill="#181818" x="329.4" y="367.5" width="793" height="24.65" shape-rendering="crispEdges"/><rect fill="#181818" x="1122.4" y="367.5" width="12.2" height="24.65" shape-rendering="crispEdges"/><rect fill="#181818" x="1134.6" y="367.5" width="24.4" height="24.65" shape-rendering="crispEdges"/><rect fill="#181818" x="1159" y="367.5" width="12.2" height="24.65" shape-rendering="crispEdges"/><rect fill="#131313" x="1171.2" y="367.5" width="292.8" height="24.65" shape-rendering="crispEdges"/><rect fill="#131313" x="0" y="391.9" width="292.8" height="24.65" shape-rendering="crispEdges"/><rect fill="#181818" x="292.8" y="391.9" width="12.2" height="24.65" shape-rendering="crispEdges"/><rect fill="#181818" x="305" y="391.9" width="24.4" height="24.65" shape-rendering="crispEdges"/><rect fill="#181818" x="329.4" y="391.9" width="768.6" height="24.65" shape-rendering="crispEdges"/><rect fill="#181818" x="1098" y="391.9" width="36.6" height="24.65" shape-rendering="crispEdges"/><rect fill="#181818" x="1134.6" y="391.9" width="24.4" height="24.65" shape-rendering="crispEdges"/><rect fill="#181818" x="1159" y="391.9" width="12.2" height="24.65" shape-rendering="crispEdges"/><rect fill="#131313" x="1171.2" y="391.9" width="292.8" height="24.65" shape-rendering="crispEdges"/><rect fill="#131313" x="0" y="416.3" width="292.8" height="24.65" shape-rendering="crispEdges"/><rect fill="#181818" x="292.8" y="416.3" width="12.2" height="24.65" shape-rendering="crispEdges"/><rect fill="#181818" x="305" y="416.3" width="24.4" height="24.65" shape-rendering="crispEdges"/><rect fill="#181818" x="329.4" y="416.3" width="756.4" height="24.65" shape-rendering="crispEdges"/><rect fill="#181818" x="1085.8" y="416.3" width="48.8" height="24.65" shape-rendering="crispEdges"/><rect fill="#181818" x="1134.6" y="416.3" width="24.4" height="24.65" shape-rendering="crispEdges"/><rect fill="#181818" x="1159" y="416.3" width="12.2" height="24.65" shape-rendering="crispEdges"/><rect fill="#131313" x="1171.2" y="416.3" width="292.8" height="24.65" shape-rendering="crispEdges"/><rect fill="#131313" x="0" y="440.7" width="292.8" height="24.65" shape-rendering="crispEdges"/><rect fill="#181818" x="292.8" y="440.7" width="12.2" height="24.65" shape-rendering="crispEdges"/><rect fill="#181818" x="305" y="440.7" width="24.4" height="24.65" shape-rendering="crispEdges"/><rect fill="#181818" x="329.4" y="440.7" width="780.8" height="24.65" shape-rendering="crispEdges"/><rect fill="#181818" x="1110.2" y="440.7" width="24.4" height="24.65" shape-rendering="crispEdges"/><rect fill="#181818" x="1134.6" y="440.7" width="24.4" height="24.65" shape-rendering="crispEdges"/><rect fill="#181818" x="1159" y="440.7" width="12.2" height="24.65" shape-rendering="crispEdges"/><rect fill="#131313" x="1171.2" y="440.7" width="292.8" height="24.65" shape-rendering="crispEdges"/><rect fill="#131313" x="0" y="465.1" width="292.8" height="24.65" shape-rendering="crispEdges"/><rect fill="#181818" x="292.8" y="465.1" width="12.2" height="24.65" shape-rendering="crispEdges"/><rect fill="#181818" x="305" y="465.1" width="24.4" height="24.65" shape-rendering="crispEdges"/><rect fill="#181818" x="329.4" y="465.1" width="195.2" height="24.65" shape-rendering="crispEdges"/><rect fill="#181818" x="524.6" y="465.1" width="610" height="24.65" shape-rendering="crispEdges"/><rect fill="#181818" x="1134.6" y="465.1" width="24.4" height="24.65" shape-rendering="crispEdges"/><rect fill="#181818" x="1159" y="465.1" width="12.2" height="24.65" shape-rendering="crispEdges"/><rect fill="#131313" x="1171.2" y="465.1" width="292.8" height="24.65" shape-rendering="crispEdges"/><rect fill="#131313" x="0" y="489.5" width="292.8" height="24.65" shape-rendering="crispEdges"/><rect fill="#181818" x="292.8" y="489.5" width="12.2" height="24.65" shape-rendering="crispEdges"/><rect fill="#181818" x="305" y="489.5" width="24.4" height="24.65" shape-rendering="crispEdges"/><rect fill="#181818" x="329.4" y="489.5" width="231.8" height="24.65" shape-rendering="crispEdges"/><rect fill="#181818" x="561.2" y="489.5" width="573.4" height="24.65" shape-rendering="crispEdges"/><rect fill="#181818" x="1134.6" y="489.5" width="24.4" height="24.65" shape-rendering="crispEdges"/><rect fill="#181818" x="1159" y="489.5" width="12.2" height="24.65" shape-rendering="crispEdges"/><rect fill="#131313" x="1171.2" y="489.5" width="292.8" height="24.65" shape-rendering="crispEdges"/><rect fill="#131313" x="0" y="513.9" width="292.8" height="24.65" shape-rendering="crispEdges"/><rect fill="#181818" x="292.8" y="513.9" width="12.2" height="24.65" shape-rendering="crispEdges"/><rect fill="#181818" x="305" y="513.9" width="24.4" height="24.65" shape-rendering="crispEdges"/><rect fill="#181818" x="329.4" y="513.9" width="805.2" height="24.65" shape-rendering="crispEdges"/><rect fill="#181818" x="1134.6" y="513.9" width="24.4" height="24.65" shape-rendering="crispEdges"/><rect fill="#181818" x="1159" y="513.9" width="12.2" height="24.65" shape-rendering="crispEdges"/><rect fill="#131313" x="1171.2" y="513.9" width="292.8" height="24.65" shape-rendering="crispEdges"/><rect fill="#131313" x="0" y="538.3" width="292.8" height="24.65" shape-rendering="crispEdges"/><rect fill="#181818" x="292.8" y="538.3" width="12.2" height="24.65" shape-rendering="crispEdges"/><rect fill="#181818" x="305" y="538.3" width="24.4" height="24.65" shape-rendering="crispEdges"/><rect fill="#181818" x="329.4" y="538.3" width="805.2" height="24.65" shape-rendering="crispEdges"/><rect fill="#181818" x="1134.6" y="538.3" width="24.4" height="24.65" shape-rendering="crispEdges"/><rect fill="#181818" x="1159" y="538.3" width="12.2" height="24.65" shape-rendering="crispEdges"/><rect fill="#131313" x="1171.2" y="538.3" width="292.8" height="24.65" shape-rendering="crispEdges"/><rect fill="#131313" x="0" y="562.7" width="292.8" height="24.65" shape-rendering="crispEdges"/><rect fill="#181818" x="292.8" y="562.7" width="12.2" height="24.65" shape-rendering="crispEdges"/><rect fill="#181818" x="305" y="562.7" width="24.4" height="24.65" shape-rendering="crispEdges"/><rect fill="#181818" x="329.4" y="562.7" width="805.2" height="24.65" shape-rendering="crispEdges"/><rect fill="#181818" x="1134.6" y="562.7" width="24.4" height="24.65" shape-rendering="crispEdges"/><rect fill="#181818" x="1159" y="562.7" width="12.2" height="24.65" shape-rendering="crispEdges"/><rect fill="#131313" x="1171.2" y="562.7" width="292.8" height="24.65" shape-rendering="crispEdges"/><rect fill="#131313" x="0" y="587.1" width="292.8" height="24.65" shape-rendering="crispEdges"/><rect fill="#181818" x="292.8" y="587.1" width="12.2" height="24.65" shape-rendering="crispEdges"/><rect fill="#181818" x="305" y="587.1" width="24.4" height="24.65" shape-rendering="crispEdges"/><rect fill="#181818" x="329.4" y="587.1" width="805.2" height="24.65" shape-rendering="crispEdges"/><rect fill="#181818" x="1134.6" y="587.1" width="24.4" height="24.65" shape-rendering="crispEdges"/><rect fill="#181818" x="1159" y="587.1" width="12.2" height="24.65" shape-rendering="crispEdges"/><rect fill="#131313" x="1171.2" y="587.1" width="292.8" height="24.65" shape-rendering="crispEdges"/><rect fill="#131313" x="0" y="611.5" width="292.8" height="24.65" shape-rendering="crispEdges"/><rect fill="#181818" x="292.8" y="611.5" width="12.2" height="24.65" shape-rendering="crispEdges"/><rect fill="#181818" x="305" y="611.5" width="24.4" height="24.65" shape-rendering="crispEdges"/><rect fill="#181818" x="329.4" y="611.5" width="805.2" height="24.65" shape-rendering="crispEdges"/><rect fill="#181818" x="1134.6" y="611.5" width="24.4" height="24.65" shape-rendering="crispEdges"/><rect fill="#181818" x="1159" y="611.5" width="12.2" height="24.65" shape-rendering="crispEdges"/><rect fill="#131313" x="1171.2" y="611.5" width="292.8" height="24.65" shape-rendering="crispEdges"/><rect fill="#131313" x="0" y="635.9" width="292.8" height="24.65" shape-rendering="crispEdges"/><rect fill="#181818" x="292.8" y="635.9" width="12.2" height="24.65" shape-rendering="crispEdges"/><rect fill="#181818" x="305" y="635.9" width="24.4" height="24.65" shape-rendering="crispEdges"/><rect fill="#181818" x="329.4" y="635.9" width="805.2" height="24.65" shape-rendering="crispEdges"/><rect fill="#181818" x="1134.6" y="635.9" width="24.4" height="24.65" shape-rendering="crispEdges"/><rect fill="#181818" x="1159" y="635.9" width="12.2" height="24.65" shape-rendering="crispEdges"/><rect fill="#131313" x="1171.2" y="635.9" width="292.8" height="24.65" shape-rendering="crispEdges"/><rect fill="#131313" x="0" y="660.3" width="292.8" height="24.65" shape-rendering="crispEdges"/><rect fill="#181818" x="292.8" y="660.3" width="12.2" height="24.65" shape-rendering="crispEdges"/><rect fill="#181818" x="305" y="660.3" width="24.4" height="24.65" shape-rendering="crispEdges"/><rect fill="#181818" x="329.4" y="660.3" width="805.2" height="24.65" shape-rendering="crispEdges"/><rect fill="#181818" x="1134.6" y="660.3" width="24.4" height="24.65" shape-rendering="crispEdges"/><rect fill="#181818" x="1159" y="660.3" width="12.2" height="24.65" shape-rendering="crispEdges"/><rect fill="#131313" x="1171.2" y="660.3" width="292.8" height="24.65" shape-rendering="crispEdges"/><rect fill="#131313" x="0" y="684.7" width="292.8" height="24.65" shape-rendering="crispEdges"/><rect fill="#181818" x="292.8" y="684.7" width="12.2" height="24.65" shape-rendering="crispEdges"/><rect fill="#181818" x="305" y="684.7" width="24.4" height="24.65" shape-rendering="crispEdges"/><rect fill="#181818" x="329.4" y="684.7" width="805.2" height="24.65" shape-rendering="crispEdges"/><rect fill="#181818" x="1134.6" y="684.7" width="24.4" height="24.65" shape-rendering="crispEdges"/><rect fill="#181818" x="1159" y="684.7" width="12.2" height="24.65" shape-rendering="crispEdges"/><rect fill="#131313" x="1171.2" y="684.7" width="292.8" height="24.65" shape-rendering="crispEdges"/><rect fill="#131313" x="0" y="709.1" width="292.8" height="24.65" shape-rendering="crispEdges"/><rect fill="#181818" x="292.8" y="709.1" width="12.2" height="24.65" shape-rendering="crispEdges"/><rect fill="#181818" x="305" y="709.1" width="24.4" height="24.65" shape-rendering="crispEdges"/><rect fill="#181818" x="329.4" y="709.1" width="805.2" height="24.65" shape-rendering="crispEdges"/><rect fill="#181818" x="1134.6" y="709.1" width="24.4" height="24.65" shape-rendering="crispEdges"/><rect fill="#181818" x="1159" y="709.1" width="12.2" height="24.65" shape-rendering="crispEdges"/><rect fill="#131313" x="1171.2" y="709.1" width="292.8" height="24.65" shape-rendering="crispEdges"/><rect fill="#131313" x="0" y="733.5" width="292.8" height="24.65" shape-rendering="crispEdges"/><rect fill="#181818" x="292.8" y="733.5" width="12.2" height="24.65" shape-rendering="crispEdges"/><rect fill="#181818" x="305" y="733.5" width="24.4" height="24.65" shape-rendering="crispEdges"/><rect fill="#181818" x="329.4" y="733.5" width="805.2" height="24.65" shape-rendering="crispEdges"/><rect fill="#181818" x="1134.6" y="733.5" width="24.4" height="24.65" shape-rendering="crispEdges"/><rect fill="#181818" x="1159" y="733.5" width="12.2" height="24.65" shape-rendering="crispEdges"/><rect fill="#131313" x="1171.2" y="733.5" width="292.8" height="24.65" shape-rendering="crispEdges"/><rect fill="#131313" x="0" y="757.9" width="292.8" height="24.65" shape-rendering="crispEdges"/><rect fill="#181818" x="292.8" y="757.9" width="12.2" height="24.65" shape-rendering="crispEdges"/><rect fill="#181818" x="305" y="757.9" width="24.4" height="24.65" shape-rendering="crispEdges"/><rect fill="#181818" x="329.4" y="757.9" width="805.2" height="24.65" shape-rendering="crispEdges"/><rect fill="#181818" x="1134.6" y="757.9" width="24.4" height="24.65" shape-rendering="crispEdges"/><rect fill="#181818" x="1159" y="757.9" width="12.2" height="24.65" shape-rendering="crispEdges"/><rect fill="#131313" x="1171.2" y="757.9" width="292.8" height="24.65" shape-rendering="crispEdges"/><rect fill="#131313" x="0" y="782.3" width="292.8" height="24.65" shape-rendering="crispEdges"/><rect fill="#181818" x="292.8" y="782.3" width="12.2" height="24.65" shape-rendering="crispEdges"/><rect fill="#181818" x="305" y="782.3" width="854" height="24.65" shape-rendering="crispEdges"/><rect fill="#181818" x="1159" y="782.3" width="12.2" height="24.65" shape-rendering="crispEdges"/><rect fill="#131313" x="1171.2" y="782.3" width="292.8" height="24.65" shape-rendering="crispEdges"/><rect fill="#131313" x="0" y="806.7" width="292.8" height="24.65" shape-rendering="crispEdges"/><rect fill="#181818" x="292.8" y="806.7" width="12.2" height="24.65" shape-rendering="crispEdges"/><rect fill="#181818" x="305" y="806.7" width="854" height="24.65" shape-rendering="crispEdges"/><rect fill="#181818" x="1159" y="806.7" width="12.2" height="24.65" shape-rendering="crispEdges"/><rect fill="#131313" x="1171.2" y="806.7" width="292.8" height="24.65" shape-rendering="crispEdges"/><rect fill="#131313" x="0" y="831.1" width="1464" height="24.65" shape-rendering="crispEdges"/><rect fill="#131313" x="0" y="855.5" width="1464" height="24.65" shape-rendering="crispEdges"/>
    <g class="terminal-21506703-matrix">
    <text class="terminal-21506703-r1" x="1464" y="20" textLength="12.2" clip-path="url(#terminal-21506703-line-0)">
</text><text class="terminal-21506703-r1" x="1464" y="44.4" textLength="12.2" clip-path="url(#terminal-21506703-line-1)">
</text><text class="terminal-21506703-r2" x="292.8" y="68.8" textLength="12.2" clip-path="url(#terminal-21506703-line-2)">╭</text><text class="terminal-21506703-r2" x="305" y="68.8" textLength="854" clip-path="url(#terminal-21506703-line-2)">──────────────────────────────────────────────────────────────────────</text><text class="terminal-21506703-r2" x="1159" y="68.8" textLength="12.2" clip-path="url(#terminal-21506703-line-2)">╮</text><text class="terminal-21506703-r1" x="1464" y="68.8" textLength="12.2" clip-path="url(#terminal-21506703-line-2)">
</text><text class="terminal-21506703-r2" x="292.8" y="93.2" textLength="12.2" clip-path="url(#terminal-21506703-line-3)">│</text><text class="terminal-21506703-r2" x="1159" y="93.2" textLength="12.2" clip-path="url(#terminal-21506703-line-3)">│</text><text class="terminal-21506703-r1" x="1464" y="93.2" textLength="12.2" clip-path="url(#terminal-21506703-line-3)">
</text><text class="terminal-21506703-r2" x="292.8" y="117.6" textLength="12.2" clip-path="url(#terminal-21506703-line-4)">│</text><text class="terminal-21506703-r3" x="329.4" y="117.6" textLength="12.2" clip-path="url(#terminal-21506703-line-4)">▊</text><text class="terminal-21506703-r4" x="341.6" y="117.6" textLength="780.8" clip-path="url(#terminal-21506703-line-4)">▔▔▔▔▔▔▔▔▔▔▔▔▔▔▔▔▔▔▔▔▔▔▔▔▔▔▔▔▔▔▔▔▔▔▔▔▔▔▔▔▔▔▔▔▔▔▔▔▔▔▔▔▔▔▔▔▔▔▔▔▔▔▔▔</text><text class="terminal-21506703-r4" x="1122.4" y="117.6" textLength="12.2" clip-path="url(#terminal-21506703-line-4)">▎</text><text class="terminal-21506703-r2" x="1159" y="117.6" textLength="12.2" clip-path="url(#terminal-21506703-line-4)">│</text><text class="terminal-21506703-r1" x="1464" y="117.6" textLength="12.2" clip-path="url(#terminal-21506703-line-4)">
</text><text class="terminal-21506703-r2" x="292.8" y="142" textLength="12.2" clip-path="url(#terminal-21506703-line-5)">│</text><text class="terminal-21506703-r3" x="329.4" y="142" textLength="12.2" clip-path="url(#terminal-21506703-line-5)">▊</text><text class="terminal-21506703-r5" x="366" y="142" textLength="12.2" clip-path="url(#terminal-21506703-line-5)">F</text><text class="terminal-21506703-r6" x="378.2" y="142" textLength="158.6" clip-path="url(#terminal-21506703-line-5)">ilter&#160;configs</text><text class="terminal-21506703-r4" x="1122.4" y="142" textLength="12.2" clip-path="url(#terminal-21506703-line-5)">▎</text><text class="terminal-21506703-r2" x="1159" y="142" textLength="12.2" clip-path="url(#terminal-21506703-line-5)">│</text><text class="terminal-21506703-r1" x="1464" y="142" textLength="12.2" clip-path="url(#terminal-21506703-line-5)">
</text><text class="terminal-21506703-r2" x="292.8" y="166.4" textLength="12.2" clip-path="url(#terminal-21506703-line-6)">│</text><text class="terminal-21506703-r3" x="329.4" y="166.4" textLength="12.2" clip-path="url(#terminal-21506703-line-6)">▊</text><text class="terminal-21506703-r4" x="341.6" y="166.4" textLength="780.8" clip-path="url(#terminal-21506703-line-6)">▁▁▁▁▁▁▁▁▁▁▁▁▁▁▁▁▁▁▁▁▁▁▁▁▁▁▁▁▁▁▁▁▁▁▁▁▁▁▁▁▁▁▁▁▁▁▁▁▁▁▁▁▁▁▁▁▁▁▁▁▁▁▁▁</text><text class="terminal-21506703-r4" x="1122.4" y="166.4" textLength="12.2" clip-path="url(#terminal-21506703-line-6)">▎</text><text class="terminal-21506703-r2" x="1159" y="166.4" textLength="12.2" clip-path="url(#terminal-21506703-line-6)">│</text><text class="terminal-21506703-r1" x="1464" y="166.4" textLength="12.2" clip-path="url(#terminal-21506703-line-6)">
</text><text class="terminal-21506703-r2" x="292.8" y="190.8" textLength="12.2" clip-path="url(#terminal-21506703-line-7)">│</text><text class="terminal-21506703-r2" x="1159" y="190.8" textLength="12.2" clip-path="url(#terminal-21506703-line-7)">│</text><text class="terminal-21506703-r1" x="1464" y="190.8" textLength="12.2" clip-path="url(#terminal-21506703-line-7)">
</text><text class="terminal-21506703-r2" x="292.8" y="215.2" textLength="12.2" clip-path="url(#terminal-21506703-line-8)">│</text><text class="terminal-21506703-r8" x="329.4" y="215.2" textLength="158.6" clip-path="url(#terminal-21506703-line-8)">Config&#160;Picker</text><text class="terminal-21506703-r2" x="1159" y="215.2" textLength="12.2" clip-path="url(#terminal-21506703-line-8)">│</text><text class="terminal-21506703-r1" x="1464" y="215.2" textLength="12.2" clip-path="url(#terminal-21506703-line-8)">
</text><text class="terminal-21506703-r2" x="292.8" y="239.6" textLength="12.2" clip-path="url(#terminal-21506703-line-9)">│</text><text class="terminal-21506703-r2" x="1159" y="239.6" textLength="12.2" clip-path="url(#terminal-21506703-line-9)">│</text><text class="terminal-21506703-r1" x="1464" y="239.6" textLength="12.2" clip-path="url(#terminal-21506703-line-9)">
</text><text class="terminal-21506703-r2" x="292.8" y="264" textLength="12.2" clip-path="url(#terminal-21506703-line-10)">│</text><text class="terminal-21506703-r8" x="329.4" y="264" textLength="366" clip-path="url(#terminal-21506703-line-10)">&gt;&#160;qwen3-8b-bf16&#160;&#160;Qwen/Qwen3-8B</text><text class="terminal-21506703-r2" x="1159" y="264" textLength="12.2" clip-path="url(#terminal-21506703-line-10)">│</text><text class="terminal-21506703-r1" x="1464" y="264" textLength="12.2" clip-path="url(#terminal-21506703-line-10)">
</text><text class="terminal-21506703-r2" x="292.8" y="288.4" textLength="12.2" clip-path="url(#terminal-21506703-line-11)">│</text><text class="terminal-21506703-r8" x="329.4" y="288.4" textLength="219.6" clip-path="url(#terminal-21506703-line-11)">&#160;&#160;tiny-llama-smoke</text><text class="terminal-21506703-r2" x="1159" y="288.4" textLength="12.2" clip-path="url(#terminal-21506703-line-11)">│</text><text class="terminal-21506703-r1" x="1464" y="288.4" textLength="12.2" clip-path="url(#terminal-21506703-line-11)">
</text><text class="terminal-21506703-r2" x="292.8" y="312.8" textLength="12.2" clip-path="url(#terminal-21506703-line-12)">│</text><text class="terminal-21506703-r8" x="329.4" y="312.8" textLength="585.6" clip-path="url(#terminal-21506703-line-12)">hf-internal-testing/tiny-random-LlamaForCausalLM</text><text class="terminal-21506703-r2" x="1159" y="312.8" textLength="12.2" clip-path="url(#terminal-21506703-line-12)">│</text><text class="terminal-21506703-r1" x="1464" y="312.8" textLength="12.2" clip-path="url(#terminal-21506703-line-12)">
</text><text class="terminal-21506703-r2" x="292.8" y="337.2" textLength="12.2" clip-path="url(#terminal-21506703-line-13)">│</text><text class="terminal-21506703-r2" x="1159" y="337.2" textLength="12.2" clip-path="url(#terminal-21506703-line-13)">│</text><text class="terminal-21506703-r1" x="1464" y="337.2" textLength="12.2" clip-path="url(#terminal-21506703-line-13)">
</text><text class="terminal-21506703-r2" x="292.8" y="361.6" textLength="12.2" clip-path="url(#terminal-21506703-line-14)">│</text><text class="terminal-21506703-r8" x="329.4" y="361.6" textLength="195.2" clip-path="url(#terminal-21506703-line-14)">Resolved&#160;command</text><text class="terminal-21506703-r2" x="1159" y="361.6" textLength="12.2" clip-path="url(#terminal-21506703-line-14)">│</text><text class="terminal-21506703-r1" x="1464" y="361.6" textLength="12.2" clip-path="url(#terminal-21506703-line-14)">
</text><text class="terminal-21506703-r2" x="292.8" y="386" textLength="12.2" clip-path="url(#terminal-21506703-line-15)">│</text><text class="terminal-21506703-r8" x="329.4" y="386" textLength="793" clip-path="url(#terminal-21506703-line-15)">docker&#160;run&#160;-d&#160;--name&#160;qwen3-8b-bf16-vela&#160;--gpus&#160;all&#160;--network&#160;host</text><text class="terminal-21506703-r2" x="1159" y="386" textLength="12.2" clip-path="url(#terminal-21506703-line-15)">│</text><text class="terminal-21506703-r1" x="1464" y="386" textLength="12.2" clip-path="url(#terminal-21506703-line-15)">
</text><text class="terminal-21506703-r2" x="292.8" y="410.4" textLength="12.2" clip-path="url(#terminal-21506703-line-16)">│</text><text class="terminal-21506703-r8" x="329.4" y="410.4" textLength="768.6" clip-path="url(#terminal-21506703-line-16)">-e&#160;CUDA_VISIBLE_DEVICES&#160;-e&#160;VLLM_API_KEY&#160;vllm/vllm-openai:latest</text><text class="terminal-21506703-r2" x="1159" y="410.4" textLength="12.2" clip-path="url(#terminal-21506703-line-16)">│</text><text class="terminal-21506703-r1" x="1464" y="410.4" textLength="12.2" clip-path="url(#terminal-21506703-line-16)">
</text><text class="terminal-21506703-r2" x="292.8" y="434.8" textLength="12.2" clip-path="url(#terminal-21506703-line-17)">│</text><text class="terminal-21506703-r8" x="329.4" y="434.8" textLength="756.4" clip-path="url(#terminal-21506703-line-17)">Qwen/Qwen3-8B&#160;--served-model-name&#160;qwen3-8b-bf16&#160;--host&#160;0.0.0.0</text><text class="terminal-21506703-r2" x="1159" y="434.8" textLength="12.2" clip-path="url(#terminal-21506703-line-17)">│</text><text class="terminal-21506703-r1" x="1464" y="434.8" textLength="12.2" clip-path="url(#terminal-21506703-line-17)">
</text><text class="terminal-21506703-r2" x="292.8" y="459.2" textLength="12.2" clip-path="url(#terminal-21506703-line-18)">│</text><text class="terminal-21506703-r8" x="329.4" y="459.2" textLength="780.8" clip-path="url(#terminal-21506703-line-18)">--port&#160;18002&#160;--gpu-memory-utilization&#160;0.95&#160;--max-model-len&#160;32768</text><text class="terminal-21506703-r2" x="1159" y="459.2" textLength="12.2" clip-path="url(#terminal-21506703-line-18)">│</text><text class="terminal-21506703-r1" x="1464" y="459.2" textLength="12.2" clip-path="url(#terminal-21506703-line-18)">
</text><text class="terminal-21506703-r2" x="292.8" y="483.6" textLength="12.2" clip-path="url(#terminal-21506703-line-19)">│</text><text class="terminal-21506703-r8" x="329.4" y="483.6" textLength="195.2" clip-path="url(#terminal-21506703-line-19)">--dtype&#160;bfloat16</text><text class="terminal-21506703-r2" x="1159" y="483.6" textLength="12.2" clip-path="url(#terminal-21506703-line-19)">│</text><text class="terminal-21506703-r1" x="1464" y="483.6" textLength="12.2" clip-path="url(#terminal-21506703-line-19)">
</text><text class="terminal-21506703-r2" x="292.8" y="508" textLength="12.2" clip-path="url(#terminal-21506703-line-20)">│</text><text class="terminal-21506703-r8" x="329.4" y="508" textLength="231.8" clip-path="url(#terminal-21506703-line-20)">VLLM_API_KEY=&#x27;••••&#x27;</text><text class="terminal-21506703-r2" x="1159" y="508" textLength="12.2" clip-path="url(#terminal-21506703-line-20)">│</text><text class="terminal-21506703-r1" x="1464" y="508" textLength="12.2" clip-path="url(#terminal-21506703-line-20)">
</text><text class="terminal-21506703-r2" x="292.8" y="532.4" textLength="12.2" clip-path="url(#terminal-21506703-line-21)">│</text><text class="terminal-21506703-r2" x="1159" y="532.4" textLength="12.2" clip-path="url(#terminal-21506703-line-21)">│</text><text class="terminal-21506703-r1" x="1464" y="532.4" textLength="12.2" clip-path="url(#terminal-21506703-line-21)">
</text><text class="terminal-21506703-r2" x="292.8" y="556.8" textLength="12.2" clip-path="url(#terminal-21506703-line-22)">│</text><text class="terminal-21506703-r2" x="1159" y="556.8" textLength="12.2" clip-path="url(#terminal-21506703-line-22)">│</text><text class="terminal-21506703-r1" x="1464" y="556.8" textLength="12.2" clip-path="url(#terminal-21506703-line-22)">
</text><text class="terminal-21506703-r2" x="292.8" y="581.2" textLength="12.2" clip-path="url(#terminal-21506703-line-23)">│</text><text class="terminal-21506703-r2" x="1159" y="581.2" textLength="12.2" clip-path="url(#terminal-21506703-line-23)">│</text><text class="terminal-21506703-r1" x="1464" y="581.2" textLength="12.2" clip-path="url(#terminal-21506703-line-23)">
</text><text class="terminal-21506703-r2" x="292.8" y="605.6" textLength="12.2" clip-path="url(#terminal-21506703-line-24)">│</text><text class="terminal-21506703-r2" x="1159" y="605.6" textLength="12.2" clip-path="url(#terminal-21506703-line-24)">│</text><text class="terminal-21506703-r1" x="1464" y="605.6" textLength="12.2" clip-path="url(#terminal-21506703-line-24)">
</text><text class="terminal-21506703-r2" x="292.8" y="630" textLength="12.2" clip-path="url(#terminal-21506703-line-25)">│</text><text class="terminal-21506703-r2" x="1159" y="630" textLength="12.2" clip-path="url(#terminal-21506703-line-25)">│</text><text class="terminal-21506703-r1" x="1464" y="630" textLength="12.2" clip-path="url(#terminal-21506703-line-25)">
</text><text class="terminal-21506703-r2" x="292.8" y="654.4" textLength="12.2" clip-path="url(#terminal-21506703-line-26)">│</text><text class="terminal-21506703-r2" x="1159" y="654.4" textLength="12.2" clip-path="url(#terminal-21506703-line-26)">│</text><text class="terminal-21506703-r1" x="1464" y="654.4" textLength="12.2" clip-path="url(#terminal-21506703-line-26)">
</text><text class="terminal-21506703-r2" x="292.8" y="678.8" textLength="12.2" clip-path="url(#terminal-21506703-line-27)">│</text><text class="terminal-21506703-r2" x="1159" y="678.8" textLength="12.2" clip-path="url(#terminal-21506703-line-27)">│</text><text class="terminal-21506703-r1" x="1464" y="678.8" textLength="12.2" clip-path="url(#terminal-21506703-line-27)">
</text><text class="terminal-21506703-r2" x="292.8" y="703.2" textLength="12.2" clip-path="url(#terminal-21506703-line-28)">│</text><text class="terminal-21506703-r2" x="1159" y="703.2" textLength="12.2" clip-path="url(#terminal-21506703-line-28)">│</text><text class="terminal-21506703-r1" x="1464" y="703.2" textLength="12.2" clip-path="url(#terminal-21506703-line-28)">
</text><text class="terminal-21506703-r2" x="292.8" y="727.6" textLength="12.2" clip-path="url(#terminal-21506703-line-29)">│</text><text class="terminal-21506703-r2" x="1159" y="727.6" textLength="12.2" clip-path="url(#terminal-21506703-line-29)">│</text><text class="terminal-21506703-r1" x="1464" y="727.6" textLength="12.2" clip-path="url(#terminal-21506703-line-29)">
</text><text class="terminal-21506703-r2" x="292.8" y="752" textLength="12.2" clip-path="url(#terminal-21506703-line-30)">│</text><text class="terminal-21506703-r2" x="1159" y="752" textLength="12.2" clip-path="url(#terminal-21506703-line-30)">│</text><text class="terminal-21506703-r1" x="1464" y="752" textLength="12.2" clip-path="url(#terminal-21506703-line-30)">
</text><text class="terminal-21506703-r2" x="292.8" y="776.4" textLength="12.2" clip-path="url(#terminal-21506703-line-31)">│</text><text class="terminal-21506703-r2" x="1159" y="776.4" textLength="12.2" clip-path="url(#terminal-21506703-line-31)">│</text><text class="terminal-21506703-r1" x="1464" y="776.4" textLength="12.2" clip-path="url(#terminal-21506703-line-31)">
</text><text class="terminal-21506703-r2" x="292.8" y="800.8" textLength="12.2" clip-path="url(#terminal-21506703-line-32)">│</text><text class="terminal-21506703-r2" x="1159" y="800.8" textLength="12.2" clip-path="url(#terminal-21506703-line-32)">│</text><text class="terminal-21506703-r1" x="1464" y="800.8" textLength="12.2" clip-path="url(#terminal-21506703-line-32)">
</text><text class="terminal-21506703-r2" x="292.8" y="825.2" textLength="12.2" clip-path="url(#terminal-21506703-line-33)">╰</text><text class="terminal-21506703-r2" x="305" y="825.2" textLength="854" clip-path="url(#terminal-21506703-line-33)">──────────────────────────────────────────────────────────────────────</text><text class="terminal-21506703-r2" x="1159" y="825.2" textLength="12.2" clip-path="url(#terminal-21506703-line-33)">╯</text><text class="terminal-21506703-r1" x="1464" y="825.2" textLength="12.2" clip-path="url(#terminal-21506703-line-33)">
</text><text class="terminal-21506703-r1" x="1464" y="849.6" textLength="12.2" clip-path="url(#terminal-21506703-line-34)">
</text>
    </g>
    </g>
</svg>
